<svg id="Capa_1" enable-background="new 0 0 511.999 511.999" height="512" viewBox="0 0 511.999 511.999" width="512" xmlns="http://www.w3.org/2000/svg"><g><path d="m457.68 139.172-31.82-53.033-190.919 190.919 106.066 21.213z" fill="#e33a38"/><path d="m372.827 54.319-159.099 116.673 21.213 106.066h84.853l116.673-159.099-10.607-31.82z" fill="#ff443b"/><path d="m500.106 139.172-21.213-21.213-21.213 21.213 21.213 21.213c5.858 5.858 15.355 5.858 21.213 0 5.858-5.857 5.858-15.355 0-21.213z" fill="#ff443b"/><path d="m478.893 139.172c5.858-5.858 5.858-15.355 0-21.213l-106.066-106.066c-5.858-5.858-15.355-5.858-21.213 0s-5.858 15.355 0 21.213l106.066 106.066c5.858 5.858 15.355 5.858 21.213 0z" fill="#ff6333"/><path d="m208.425 271.755-42.427 42.426-5.303 37.123 37.123-5.303 42.426-42.426z" fill="#93b7c0"/><path d="m165.998 314.181-138.738 138.739c-14.134 14.134-20.679 32.975-19.657 51.477 18.501 1.022 37.343-5.523 51.477-19.657l138.738-138.738z" fill="#acd5df"/><path d="m341.007 298.271-21.213-21.213v148.492l21.213 21.213c41.005-41.004 41.005-107.487 0-148.492z" fill="#ff443b"/><path d="m319.794 277.058-106.066-106.066c-41.005-41.005-107.487-41.005-148.492 0l254.559 254.559c41.004-41.006 41.004-107.488-.001-148.493z" fill="#ff6333"/><path d="m505.409 133.869-127.279-127.278c-4.249-4.25-9.9-6.591-15.91-6.591s-11.66 2.341-15.91 6.59c-4.25 4.25-6.59 9.9-6.59 15.91s2.341 11.66 6.59 15.91l15.031 15.031-147.015 107.812c-44.121-39.368-112.065-37.893-154.394 4.436-2.929 2.93-2.929 7.678 0 10.607l116.673 116.673-154.649 154.648c-15.057 15.058-23.018 35.904-21.842 57.194.211 3.816 3.258 6.863 7.075 7.074 1.381.076 2.759.114 4.135.114 19.833 0 38.978-7.875 53.059-21.955l154.648-154.649 116.672 116.672c1.464 1.464 3.384 2.196 5.303 2.196s3.839-.732 5.303-2.196c21.249-21.249 32.951-49.5 32.951-79.55 0-27.885-10.082-54.217-28.513-74.846l107.811-147.014 15.031 15.031c4.25 4.25 9.9 6.591 15.91 6.591s11.66-2.341 15.91-6.59c4.25-4.25 6.59-9.9 6.59-15.91s-2.34-11.66-6.59-15.91zm-451.633 345.568c-10.364 10.363-24.156 16.524-38.656 17.442.919-14.499 7.08-28.293 17.443-38.655l154.649-154.648 21.213 21.213zm287.031-43.479-264.763-264.763c38.263-32.83 96.148-31.131 132.38 5.102l127.28 127.279c18.415 18.415 28.557 42.899 28.557 68.942 0 23.527-8.278 45.782-23.454 63.44zm153.995-280.875c-1.417 1.416-3.3 2.196-5.303 2.196s-3.886-.78-5.303-2.197l-84.853-84.852c-2.929-2.928-7.678-2.928-10.606 0-2.929 2.93-2.929 7.678 0 10.607l59.09 59.089-107.698 146.86-114.917-114.916 152.05-111.503c1.765-1.294 2.876-3.294 3.043-5.476.167-2.183-.627-4.328-2.175-5.876l-21.213-21.213c-1.417-1.416-2.197-3.3-2.197-5.303s.78-3.887 2.197-5.304c1.417-1.416 3.3-2.196 5.303-2.196s3.886.78 5.303 2.197l127.279 127.279c1.417 1.416 2.197 3.3 2.197 5.303s-.78 3.888-2.197 5.305z"/></g></svg>